<svg width="178" height="89" viewBox="0 0 178 89" fill="none" xmlns="http://www.w3.org/2000/svg">
<path d="M178 88.9998C178 77.3122 175.698 65.739 171.225 54.9411C166.752 44.1431 160.197 34.3318 151.932 26.0674C143.668 17.803 133.857 11.2474 123.059 6.77471C112.261 2.30205 100.687 -5.10882e-07 88.9998 0C77.3122 5.10882e-07 65.739 2.30205 54.941 6.77471C44.1431 11.2474 34.3318 17.803 26.0674 26.0674C17.803 34.3318 11.2474 44.1431 6.7747 54.9411C2.30205 65.739 -1.02176e-06 77.3122 0 88.9998H20.747C20.747 80.0367 22.5124 71.1614 25.9424 62.8806C29.3724 54.5998 34.3999 47.0756 40.7378 40.7378C47.0756 34.3999 54.5998 29.3724 62.8806 25.9424C71.1614 22.5124 80.0367 20.747 88.9998 20.747C97.9629 20.747 106.838 22.5124 115.119 25.9424C123.4 29.3724 130.924 34.3999 137.262 40.7378C143.6 47.0756 148.627 54.5998 152.057 62.8806C155.487 71.1614 157.253 80.0367 157.253 88.9998H178Z" fill="#F0F0F0"/>
</svg>
