<svg width="177" height="177" viewBox="0 0 177 177" fill="none" xmlns="http://www.w3.org/2000/svg">
<path d="M75.7766 160.119L73.5446 171.094L68.6214 170.093C67.3566 169.836 66.4366 169.382 65.8613 168.732C65.2839 168.092 65.0845 167.333 65.2631 166.455C65.3842 165.859 65.6222 165.385 65.9768 165.033C66.3211 164.678 66.7402 164.437 67.2343 164.309C67.7284 164.181 68.2368 164.17 68.7594 164.276L68.3816 164.689C67.7544 164.561 67.2227 164.339 66.7865 164.022C66.3504 163.704 66.0347 163.303 65.8397 162.817C65.6425 162.341 65.6076 161.79 65.7352 161.163C65.9265 160.222 66.4307 159.563 67.2477 159.185C68.0522 158.815 69.1496 158.771 70.5398 159.054L75.7766 160.119ZM73.9504 161.07L70.3442 160.337C69.4767 160.16 68.7832 160.172 68.2637 160.371C67.7443 160.57 67.4208 160.983 67.2933 161.61C67.1636 162.248 67.299 162.76 67.6994 163.146C68.0998 163.532 68.7337 163.814 69.6013 163.99L73.3486 164.752L73.0903 166.022L69.735 165.34C68.9406 165.178 68.2941 165.199 67.7956 165.402C67.2971 165.606 66.9883 166 66.8693 166.586C66.7502 167.171 66.8804 167.655 67.2599 168.037C67.6394 168.418 68.2264 168.69 69.0208 168.852L72.235 169.505L73.9504 161.07Z" fill="#542FB4"/>
<path d="M62.3974 156.32C63.7903 156.796 64.7491 157.569 65.2738 158.639C65.7986 159.709 65.7987 161.011 65.2742 162.545L63.2141 168.571L61.7002 168.053L63.7395 162.088C64.1433 160.907 64.1809 159.956 63.8525 159.235C63.514 158.511 62.8704 157.986 61.9216 157.662C60.9628 157.334 60.1328 157.355 59.4317 157.724C58.7206 158.089 58.1631 158.863 57.7594 160.044L55.72 166.009L54.2515 165.506L56.3115 159.481C56.836 157.947 57.6333 156.917 58.7032 156.393C59.7631 155.864 60.9945 155.84 62.3974 156.32Z" fill="#542FB4"/>
<path d="M57.883 154.504L53.218 164.686L51.7634 164.02L56.4284 153.838L57.883 154.504Z" fill="#542FB4"/>
<path d="M53.4001 152.243L47.8442 161.968L46.455 161.174L51.3203 152.658L46.055 149.65L46.7455 148.441L53.4001 152.243Z" fill="#542FB4"/>
<path d="M46.9087 148.255L40.2138 157.234L36.4299 154.412C35.4721 153.698 34.7701 152.882 34.3238 151.964C33.869 151.039 33.6924 150.089 33.7942 149.114C33.8875 148.132 34.2657 147.197 34.9288 146.308C35.5919 145.418 36.3805 144.789 37.2947 144.419C38.2003 144.044 39.1611 143.942 40.177 144.114C41.1844 144.279 42.167 144.719 43.1247 145.433L46.9087 148.255ZM44.7939 148.414L42.3696 146.607C41.6257 146.052 40.8791 145.715 40.13 145.595C39.3723 145.47 38.6557 145.547 37.9802 145.829C37.2984 146.119 36.7088 146.597 36.2115 147.264C35.7077 147.94 35.4174 148.641 35.3405 149.369C35.2637 150.097 35.3936 150.806 35.7305 151.496C36.0588 152.18 36.595 152.799 37.3389 153.354L39.7632 155.161L44.7939 148.414Z" fill="#542FB4"/>
<path d="M36.6979 139.697L24.9687 143.383L23.9127 142.202L28.8685 130.943L29.9885 132.195L25.3272 142.44L24.9005 141.963L35.5993 138.468L36.6979 139.697ZM33.171 139.953L31.9289 140.485L27.7262 135.786L28.3709 134.587L33.171 139.953Z" fill="#542FB4"/>
<path d="M25.4675 124.504C25.909 125.234 26.2215 125.999 26.4052 126.798C26.5798 127.602 26.605 128.303 26.4807 128.902L25.1065 129.041C25.2052 128.483 25.1886 127.857 25.0564 127.164C24.9243 126.471 24.6733 125.819 24.3036 125.208C23.967 124.651 23.63 124.237 23.2925 123.968C22.955 123.698 22.6271 123.547 22.3087 123.516C21.9812 123.489 21.6759 123.562 21.3929 123.733C21.0643 123.931 20.8658 124.201 20.7974 124.541C20.7235 124.873 20.732 125.248 20.823 125.666C20.8994 126.081 21.0161 126.522 21.1731 126.988C21.3301 127.454 21.4762 127.932 21.6113 128.424C21.7318 128.912 21.8011 129.388 21.8191 129.85C21.8315 130.304 21.7415 130.732 21.5489 131.135C21.3471 131.544 20.9907 131.903 20.4795 132.212C19.9865 132.51 19.4574 132.655 18.8921 132.648C18.3122 132.637 17.7362 132.437 17.1642 132.047C16.5775 131.654 16.0304 131.037 15.5227 130.197C15.1861 129.641 14.9253 129.044 14.7403 128.408C14.5553 127.772 14.4783 127.171 14.5094 126.603L15.878 126.393C15.8524 126.969 15.9183 127.522 16.0755 128.05C16.2236 128.583 16.4273 129.065 16.6866 129.494C17.0122 130.032 17.3483 130.434 17.6949 130.698C18.0415 130.962 18.3785 131.107 18.7061 131.134C19.0281 131.151 19.3306 131.074 19.6136 130.903C19.9513 130.699 20.1572 130.431 20.2311 130.1C20.2995 129.759 20.291 129.384 20.2055 128.975C20.1145 128.556 19.995 128.111 19.8471 127.64C19.6901 127.174 19.5468 126.699 19.4171 126.217C19.282 125.725 19.2082 125.253 19.1957 124.799C19.1777 124.336 19.265 123.903 19.4576 123.5C19.6502 123.097 19.9976 122.744 20.4996 122.44C20.9834 122.148 21.5153 122.007 22.0952 122.018C22.6661 122.034 23.2476 122.244 23.8397 122.646C24.4173 123.045 24.9599 123.664 25.4675 124.504Z" fill="#542FB4"/>
<path d="M21.5132 116.405C22.121 117.746 22.2151 118.974 21.7955 120.089C21.376 121.205 20.4278 122.097 18.9512 122.766L13.1513 125.396L12.4907 123.939L18.2323 121.336C19.3689 120.82 20.0872 120.196 20.3872 119.463C20.6828 118.72 20.6236 117.892 20.2096 116.978C19.7912 116.056 19.2074 115.465 18.4582 115.208C17.7046 114.94 16.7594 115.064 15.6228 115.58L9.88122 118.182L9.24042 116.769L15.0403 114.14C16.5169 113.47 17.813 113.345 18.9284 113.765C20.0394 114.175 20.901 115.055 21.5132 116.405Z" fill="#542FB4"/>
<path d="M18.4228 107.245C18.6753 108.061 18.7764 108.856 18.7262 109.63C18.6625 110.398 18.4651 111.113 18.1338 111.774C17.7892 112.428 17.33 113 16.7561 113.49C16.1822 113.981 15.4978 114.349 14.7031 114.595C13.9084 114.841 13.1357 114.924 12.385 114.844C11.6343 114.764 10.9356 114.545 10.2887 114.187C9.6316 113.832 9.06487 113.355 8.58848 112.754C8.09875 112.146 7.72763 111.435 7.47513 110.62C7.21947 109.795 7.12697 108.991 7.19763 108.21C7.25494 107.422 7.48295 106.698 7.88166 106.039L9.15226 106.734C8.85057 107.274 8.67675 107.83 8.63078 108.403C8.57463 108.978 8.63651 109.557 8.81642 110.138C9.00264 110.739 9.27813 111.267 9.64288 111.724C10.0045 112.17 10.4271 112.525 10.9107 112.789C11.3942 113.052 11.9239 113.212 12.4996 113.268C13.062 113.317 13.6387 113.25 14.2297 113.067C14.8206 112.884 15.3393 112.611 15.7856 112.25C16.2186 111.881 16.5601 111.452 16.8101 110.961C17.0601 110.47 17.2081 109.939 17.2541 109.366C17.2969 108.783 17.2252 108.192 17.0389 107.59C16.859 107.01 16.5883 106.496 16.2267 106.05C15.8549 105.607 15.3868 105.249 14.8224 104.977L15.4775 103.686C16.1793 104.004 16.7816 104.471 17.2847 105.085C17.7846 105.69 18.164 106.41 18.4228 107.245Z" fill="#542FB4"/>
<path d="M16.7287 98.6525C16.8804 99.4922 16.8843 100.294 16.7404 101.057C16.5841 101.811 16.3014 102.496 15.8924 103.112C15.471 103.72 14.9457 104.232 14.3165 104.649C13.6873 105.066 12.9633 105.349 12.1446 105.497C11.3259 105.645 10.5488 105.633 9.8134 105.463C9.07801 105.292 8.41098 104.99 7.81231 104.556C7.20314 104.124 6.69856 103.581 6.29858 102.927C5.8862 102.265 5.60415 101.513 5.45242 100.674C5.29879 99.8234 5.30445 99.0149 5.46939 98.248C5.62194 97.4725 5.9361 96.7817 6.41189 96.1754L7.58874 97.0196C7.22374 97.5191 6.98369 98.0503 6.86859 98.613C6.74299 99.1777 6.73424 99.7592 6.84235 100.358C6.95425 100.977 7.16353 101.535 7.47019 102.033C7.77495 102.519 8.15136 102.923 8.59942 103.243C9.04747 103.563 9.55383 103.786 10.1185 103.912C10.6708 104.029 11.2513 104.032 11.8601 103.922C12.4689 103.812 13.0168 103.605 13.5037 103.3C13.9782 102.987 14.3693 102.602 14.677 102.145C14.9847 101.688 15.1961 101.179 15.3112 100.616C15.4244 100.043 15.4251 99.4463 15.3132 98.8269C15.2051 98.2286 14.9986 97.686 14.6939 97.1991C14.3786 96.7141 13.9574 96.3025 13.4302 95.9641L14.2372 94.7615C14.895 95.1629 15.4363 95.6992 15.8611 96.3704C16.284 97.031 16.5732 97.7917 16.7287 98.6525Z" fill="#542FB4"/>
<path d="M9.81078 93.8246L9.46143 88.0752L10.8189 87.9928L11.1683 93.7422L9.81078 93.8246ZM14.7689 93.3791L14.373 86.8631L15.7624 86.7787L16.2554 94.8917L5.07599 95.571L4.5966 87.6816L5.98604 87.5972L6.36838 93.8895L14.7689 93.3791Z" fill="#542FB4"/>
<path d="M16.3559 83.3563C16.313 84.2085 16.1442 85.0171 15.8495 85.7819C15.544 86.5462 15.1723 87.1416 14.7344 87.5682L13.5177 86.9143C13.9119 86.5069 14.2482 85.9791 14.5264 85.3309C14.8047 84.6827 14.9617 84.0018 14.9976 83.288C15.0302 82.6382 14.9822 82.1071 14.8534 81.6948C14.7246 81.2824 14.5372 80.974 14.2911 80.7694C14.0344 80.5642 13.741 80.4533 13.4107 80.4367C13.0272 80.4175 12.7118 80.5298 12.4646 80.7737C12.2179 81.0069 12.0152 81.3225 11.8563 81.7203C11.6874 82.107 11.5376 82.5374 11.4069 83.0114C11.2763 83.4854 11.1294 83.964 10.9663 84.4471C10.7931 84.919 10.5844 85.3517 10.3403 85.7453C10.0968 86.1282 9.78246 86.4328 9.39728 86.6591C9.00145 86.8848 8.50524 86.9827 7.90866 86.9527C7.33339 86.9238 6.81355 86.7482 6.34915 86.4258C5.87463 86.0922 5.50935 85.6039 5.25331 84.9609C4.98715 84.3067 4.8787 83.4896 4.92797 82.5095C4.96063 81.8597 5.07825 81.2194 5.28084 80.5888C5.48342 79.9582 5.75629 79.4165 6.09945 78.9638L7.35132 79.5554C7.00763 80.0188 6.75315 80.5133 6.58788 81.039C6.41196 81.5641 6.31142 82.0771 6.28625 82.5778C6.25466 83.2063 6.30858 83.727 6.44803 84.1399C6.58748 84.5527 6.78555 84.8617 7.04225 85.0669C7.29947 85.2614 7.59321 85.3669 7.92346 85.3835C8.31763 85.4033 8.63806 85.2966 8.88474 85.0634C9.13197 84.8195 9.33473 84.5039 9.49304 84.1167C9.65188 83.7188 9.80194 83.2832 9.94322 82.8097C10.0739 82.3356 10.2205 81.8624 10.383 81.3899C10.5462 80.9069 10.7495 80.4739 10.993 80.0909C11.2371 79.6974 11.5517 79.3874 11.9369 79.1611C12.3221 78.9349 12.8076 78.8364 13.3936 78.8659C13.9582 78.8943 14.4777 79.0753 14.9523 79.4088C15.4161 79.7419 15.7809 80.2408 16.0465 80.9057C16.302 81.5593 16.4051 82.3762 16.3559 83.3563Z" fill="#542FB4"/>
<path d="M17.3798 75.7025C17.2459 76.5453 16.9914 77.3311 16.6164 78.06C16.2309 78.7871 15.7975 79.3393 15.3164 79.7165L14.1767 78.936C14.6124 78.5732 15.0032 78.0845 15.3493 77.4698C15.6954 76.8552 15.9245 76.1949 16.0366 75.4891C16.1387 74.8465 16.1478 74.3134 16.0639 73.8896C15.98 73.4659 15.8267 73.1391 15.604 72.9093C15.3708 72.6778 15.0909 72.5362 14.7643 72.4843C14.3851 72.424 14.0595 72.5019 13.7876 72.7179C13.5173 72.9234 13.2819 73.2154 13.0814 73.594C12.872 73.9603 12.6769 74.3721 12.4963 74.8295C12.3156 75.2868 12.1183 75.7468 11.9044 76.2097C11.6816 76.6603 11.4277 77.0682 11.1429 77.4334C10.8598 77.788 10.5146 78.0572 10.1074 78.2409C9.68965 78.4229 9.18582 78.4671 8.59588 78.3734C8.02702 78.283 7.52899 78.0526 7.1018 77.6824C6.66575 77.2999 6.35488 76.7753 6.16919 76.1085C5.97464 75.4296 5.95436 74.6055 6.10834 73.6364C6.21043 72.9938 6.39597 72.3698 6.66494 71.7645C6.93391 71.1592 7.26324 70.6499 7.65292 70.2366L8.83422 70.9589C8.44286 71.3828 8.13687 71.8472 7.91624 72.3521C7.68507 72.8554 7.53016 73.3546 7.45149 73.8498C7.35275 74.4713 7.35058 74.9948 7.445 75.4202C7.53942 75.8456 7.70325 76.1741 7.93648 76.4055C8.17139 76.6264 8.45214 76.7629 8.77871 76.8147C9.16848 76.8767 9.4985 76.8049 9.76876 76.5994C10.0407 76.3834 10.2761 76.0914 10.475 75.7234C10.6755 75.3448 10.8714 74.9277 11.0626 74.4721C11.2432 74.0148 11.4397 73.56 11.652 73.1077C11.8659 72.6448 12.1144 72.2361 12.3976 71.8815C12.6824 71.5163 13.0284 71.2419 13.4356 71.0581C13.8428 70.8744 14.3361 70.8286 14.9155 70.9206C15.4739 71.0093 15.9711 71.2449 16.4071 71.6274C16.8326 72.0083 17.1418 72.5434 17.3347 73.2329C17.5187 73.9101 17.5337 74.7334 17.3798 75.7025Z" fill="#542FB4"/>
<path d="M12.9135 68.3886L14.4456 62.8195L15.7723 63.1845L14.2402 68.7535L12.9135 68.3886ZM18.6484 69.8004L18.224 71.343L7.42525 68.3722L9.52184 60.7513L10.864 61.1205L9.19179 67.1987L18.6484 69.8004Z" fill="#542FB4"/>
<path d="M22.558 59.2726C21.9982 60.634 21.1684 61.5442 20.0686 62.0031C18.9687 62.462 17.6691 62.3831 16.1696 61.7665L10.28 59.3448L10.8885 57.865L16.7188 60.2624C17.8731 60.737 18.82 60.8323 19.5596 60.5482C20.3033 60.2543 20.8657 59.6436 21.247 58.7163C21.6324 57.7791 21.6622 56.9494 21.3363 56.2272C21.0146 55.4952 20.2765 54.8919 19.1223 54.4173L13.292 52.0199L13.8822 50.5845L19.7717 53.0062C21.2712 53.6228 22.2504 54.481 22.7093 55.5808C23.1723 56.6708 23.1218 57.9014 22.558 59.2726Z" fill="#542FB4"/>
<path d="M24.569 54.9975L14.7843 49.5476L15.5629 48.1498L24.1314 52.9223L27.0821 47.6246L28.2982 48.302L24.569 54.9975Z" fill="#542FB4"/>
<path d="M31.5739 44.2824L22.9919 37.086L26.22 33.2363C27.0493 32.2473 27.8869 31.6551 28.7329 31.4597C29.5707 31.2574 30.3329 31.4441 31.0195 32.0198C31.4854 32.4105 31.7886 32.8457 31.9291 33.3255C32.0766 33.7972 32.0887 34.2807 31.9657 34.7761C31.8426 35.2714 31.6097 35.7235 31.267 36.1321L31.0843 35.603C31.4955 35.1126 31.9446 34.7514 32.4315 34.5194C32.9184 34.2873 33.4219 34.2015 33.9421 34.2618C34.4541 34.3152 34.9553 34.5476 35.4457 34.9588C36.1813 35.5757 36.5204 36.3333 36.463 37.2318C36.4043 38.1152 35.9192 39.1005 35.0076 40.1876L31.5739 44.2824ZM31.6089 42.2237L33.9734 39.4039C34.5423 38.7255 34.8631 38.1105 34.9358 37.559C35.0085 37.0074 34.7997 36.5261 34.3093 36.1148C33.8107 35.6968 33.2962 35.5716 32.7658 35.7393C32.2353 35.907 31.6857 36.3301 31.1168 37.0085L28.6598 39.9386L27.6667 39.1059L29.8668 36.4822C30.3876 35.8611 30.6776 35.2829 30.7366 34.7477C30.7956 34.2125 30.5962 33.753 30.1385 33.3692C29.6808 32.9854 29.1936 32.8692 28.6769 33.0205C28.1602 33.1719 27.6414 33.5582 27.1205 34.1794L25.013 36.6927L31.6089 42.2237Z" fill="#542FB4"/>
<path d="M37.8188 37.378L30.2028 29.1661L33.4055 26.1958C34.125 25.5285 34.8441 25.0725 35.5628 24.8279C36.2816 24.5832 36.9772 24.549 37.6499 24.7253C38.3226 24.9016 38.9345 25.2869 39.4858 25.8813C40.037 26.4757 40.3753 27.1149 40.5005 27.7989C40.6184 28.4751 40.5284 29.1624 40.2304 29.8606C39.9324 30.5589 39.4236 31.2417 38.7041 31.909L36.1466 34.2809L36.1741 33.2516L38.992 36.29L37.8188 37.378ZM43.3091 32.2862L38.4574 31.2431L39.7127 30.0789L44.5878 31.1003L43.3091 32.2862ZM36.2829 33.3689L35.2218 33.2837L37.7441 30.9445C38.4949 30.2482 38.9132 29.562 38.999 28.8859C39.0854 28.1948 38.8566 27.5559 38.3126 26.9693C37.7686 26.3828 37.1524 26.1105 36.464 26.1525C35.7834 26.1872 35.0677 26.5528 34.3169 27.2491L31.7946 29.5883L31.7785 28.5121L36.2829 33.3689Z" fill="#542FB4"/>
<path d="M43.0857 32.6462L40.6324 20.5985L41.9159 19.6703L52.602 25.7642L51.2407 26.7486L41.5334 21.0527L42.052 20.6776L44.4211 31.6805L43.0857 32.6462ZM43.1952 29.1116L42.7952 27.8212L47.9034 24.127L49.0294 24.8923L43.1952 29.1116Z" fill="#542FB4"/>
<path d="M51.7195 26.7824L46.3411 16.9583L47.492 16.3282L58.4078 20.8406L57.8044 21.171L53.3864 13.1012L54.7899 12.3329L60.1682 22.157L59.0174 22.787L48.1015 18.2746L48.705 17.9442L53.1229 26.0141L51.7195 26.7824Z" fill="#542FB4"/>
<path d="M59.9911 22.6253L55.9565 12.1772L60.3596 10.477C61.474 10.0466 62.5387 9.88703 63.5536 9.99824C64.5784 10.1056 65.4764 10.462 66.2476 11.0675C67.0288 11.6692 67.6192 12.4875 68.0188 13.5223C68.4185 14.5572 68.5312 15.5599 68.3572 16.5304C68.193 17.4971 67.7676 18.3646 67.081 19.1328C66.4042 19.8973 65.5086 20.4947 64.3942 20.925L59.9911 22.6253ZM60.9822 20.7504L63.8032 19.6611C64.6689 19.3268 65.3518 18.8744 65.8518 18.304C66.3619 17.7297 66.6777 17.0817 66.7992 16.3602C66.917 15.6287 66.826 14.8748 66.5263 14.0987C66.2227 13.3126 65.7834 12.6932 65.2085 12.2406C64.6335 11.7881 63.9642 11.5205 63.2005 11.4381C62.4469 11.3518 61.6372 11.4758 60.7715 11.8101L57.9505 12.8994L60.9822 20.7504Z" fill="#542FB4"/>
<path d="M76.6781 17.8544L71.375 7.3029L73.0061 7.06786L77.8851 16.8076L77.0616 16.9262L79.119 6.18701L80.5759 5.97707L85.5024 15.7099L84.7106 15.824L86.6888 5.09622L88.1932 4.87943L86.0849 16.4989L84.4221 16.7385L79.8245 7.71803L80.2521 7.65641L78.3726 17.6102L76.6781 17.8544Z" fill="#542FB4"/>
<path d="M86.8395 16.9524L86.5991 5.75502L88.1987 5.72067L88.4391 16.9181L86.8395 16.9524Z" fill="#542FB4"/>
<path d="M94.0738 17.1814L94.74 7.39601L90.9089 7.13517L91.0034 5.74639L100.246 6.37565L100.151 7.76444L96.3204 7.5036L95.6541 17.2889L94.0738 17.1814Z" fill="#542FB4"/>
<path d="M109.434 8.28708L111.006 8.58304L108.935 19.5898L107.362 19.2938L109.434 8.28708ZM101.041 18.104L99.4688 17.8081L101.54 6.80136L103.113 7.09732L101.041 18.104ZM108.427 14.4146L101.807 13.1686L102.065 11.8006L108.685 13.0466L108.427 14.4146Z" fill="#542FB4"/>
<path d="M113.397 21.4686L117.655 11.1095L122.02 12.9039C123.125 13.3581 124.008 13.9746 124.668 14.7534C125.338 15.5362 125.745 16.4126 125.888 17.3826C126.041 18.3567 125.907 19.3567 125.485 20.3828C125.064 21.4088 124.456 22.2142 123.662 22.7989C122.878 23.3877 121.972 23.7248 120.945 23.8102C119.928 23.8996 118.867 23.7172 117.762 23.263L113.397 21.4686ZM115.406 20.7894L118.203 21.939C119.061 22.2918 119.868 22.4332 120.623 22.3631C121.389 22.297 122.064 22.0439 122.648 21.6038C123.237 21.1538 123.689 20.544 124.005 19.7745C124.326 18.9951 124.433 18.2434 124.327 17.5194C124.221 16.7954 123.919 16.1408 123.421 15.5557C122.934 14.9747 122.261 14.5077 121.402 14.1549L118.605 13.0053L115.406 20.7894Z" fill="#542FB4"/>
<path d="M122.529 25.6743L127.837 15.812L129.246 16.5702L123.938 26.4326L122.529 25.6743Z" fill="#542FB4"/>
<path d="M130.916 31.081C130.2 30.5975 129.619 30.0379 129.173 29.4021C128.734 28.7576 128.436 28.0739 128.28 27.3511C128.131 26.6195 128.126 25.8828 128.267 25.141C128.407 24.3993 128.71 23.6837 129.176 22.9941C129.641 22.3046 130.192 21.7561 130.828 21.3487C131.463 20.9412 132.145 20.6745 132.874 20.5487C133.617 20.4199 134.367 20.4436 135.123 20.6197C135.885 20.7869 136.629 21.1152 137.354 21.6047C138.088 22.1002 138.679 22.6732 139.128 23.3237C139.576 23.9743 139.852 24.6815 139.954 25.4454L138.577 25.7124C138.447 25.0844 138.214 24.5342 137.876 24.0618C137.554 23.5866 137.132 23.1729 136.61 22.8207C136.08 22.4625 135.525 22.2166 134.946 22.083C134.376 21.9554 133.815 21.9373 133.264 22.0287C132.722 22.1261 132.209 22.3331 131.725 22.6498C131.256 22.9635 130.848 23.3768 130.502 23.8895C130.162 24.3934 129.931 24.926 129.809 25.4874C129.702 26.0459 129.702 26.5992 129.808 27.1471C129.929 27.6922 130.155 28.2053 130.487 28.6866C130.818 29.1678 131.249 29.5875 131.78 29.9456C132.275 30.2799 132.798 30.5241 133.351 30.6783C133.918 30.8295 134.518 30.8553 135.152 30.7555L135.227 32.2736C134.505 32.3522 133.766 32.2842 133.01 32.0697C132.268 31.8523 131.571 31.5227 130.916 31.081ZM134.071 31.2417L136.399 27.7941L137.672 28.6536L135.227 32.2736L134.071 31.2417Z" fill="#542FB4"/>
<path d="M134.455 33.7869L141.619 25.1782L142.849 26.2017L135.684 34.8104L134.455 33.7869Z" fill="#542FB4"/>
<path d="M139.77 38.6995L146.692 31.7513L143.972 29.0411L144.954 28.055L151.517 34.5934L150.535 35.5795L147.814 32.8693L140.892 39.8175L139.77 38.6995Z" fill="#542FB4"/>
<path d="M142.383 41.4188L154.303 38.4064L155.29 39.6452L149.701 50.6038L148.654 49.2899L153.891 39.3276L154.29 39.8282L143.41 42.7077L142.383 41.4188ZM145.919 41.3633L147.189 40.9036L151.117 45.834L150.405 46.9945L145.919 41.3633Z" fill="#542FB4"/>
<path d="M148.671 49.8458L158.17 43.9129L159.018 45.27L150.699 50.4655L153.911 55.6088L152.731 56.3462L148.671 49.8458Z" fill="#542FB4"/>
<path d="M154.661 61.0693L165.151 57.1457L165.611 58.3746L159.443 66.0453L159.197 65.3859L168.862 67.0665L169.322 68.2953L158.837 72.2339L158.299 70.7953L166.521 67.7031L166.649 68.0477L158.149 66.5124L157.891 65.823L163.286 59.0561L163.427 59.4308L155.199 62.508L154.661 61.0693Z" fill="#542FB4"/>
<path d="M157.717 69.8035L169.759 72.2855L170.108 73.8307L160.302 81.2594L159.933 79.6206L168.987 72.9354L169.128 73.5597L158.08 71.4111L157.717 69.8035ZM160.924 71.2941L162.268 71.4338L163.655 77.5831L162.509 78.3175L160.924 71.2941Z" fill="#542FB4"/>
<path d="M159.71 80.0786L170.853 78.9569L171.291 83.303C171.389 84.2794 171.319 85.128 171.081 85.8488C170.842 86.5696 170.45 87.1452 169.904 87.5754C169.357 88.0056 168.681 88.2613 167.874 88.3425C167.068 88.4236 166.354 88.3079 165.733 87.9952C165.122 87.6814 164.628 87.1951 164.251 86.5362C163.874 85.8773 163.636 85.0597 163.538 84.0833L163.189 80.6128L163.993 81.2555L159.87 81.6705L159.71 80.0786ZM160.46 87.5289L164.218 84.2882L164.389 85.9916L160.634 89.2642L160.46 87.5289ZM163.834 81.2715L164.542 80.4766L164.886 83.8994C164.989 84.9182 165.284 85.6658 165.771 86.142C166.27 86.6278 166.918 86.8306 167.714 86.7505C168.51 86.6704 169.099 86.3431 169.481 85.7687C169.863 85.2048 170.003 84.4135 169.901 83.3946L169.556 79.9719L170.425 80.6082L163.834 81.2715Z" fill="#542FB4"/>
<path d="M162.942 90.2959L164.895 90.2575L171.302 96.7477L171.263 98.5713L166.185 93.5498L165.213 92.6328L162.942 90.2959ZM160.269 88.8305L171.466 89.0694L171.432 90.6691L160.234 90.4301L160.269 88.8305ZM160.099 96.7647L165.54 92.2877L166.701 93.3848L160.059 98.6363L160.099 96.7647Z" fill="#542FB4"/>
<path d="M165.858 99.9391L165.057 105.643L163.711 105.454L164.511 99.7501L165.858 99.9391ZM160.91 99.3903L160.003 105.855L158.624 105.662L159.754 97.6124L170.845 99.1686L169.747 106.996L168.368 106.803L169.244 100.56L160.91 99.3903Z" fill="#542FB4"/>
<path d="M157.743 107.921L167.245 110.35L168.196 106.63L169.545 106.975L167.25 115.95L165.901 115.605L166.852 111.885L157.35 109.455L157.743 107.921Z" fill="#542FB4"/>
<path d="M156.042 113.314L166.602 117.047L166.069 118.555L155.509 114.823L156.042 113.314Z" fill="#542FB4"/>
<path d="M154.253 117.909L164.387 122.679L163.828 123.866L152.349 126.65L152.642 126.028L160.966 129.946L160.285 131.394L150.151 126.624L150.71 125.437L162.189 122.652L161.896 123.275L153.572 119.357L154.253 117.909Z" fill="#542FB4"/>
<path d="M147.166 130.349C147.631 129.621 148.176 129.026 148.8 128.564C149.434 128.108 150.11 127.793 150.828 127.62C151.556 127.452 152.292 127.429 153.037 127.551C153.782 127.672 154.505 127.957 155.206 128.405C155.907 128.853 156.47 129.39 156.893 130.015C157.316 130.64 157.6 131.315 157.744 132.04C157.892 132.78 157.887 133.53 157.73 134.291C157.582 135.057 157.272 135.809 156.801 136.546C156.324 137.292 155.766 137.897 155.127 138.362C154.488 138.827 153.788 139.12 153.027 139.242L152.726 137.871C153.35 137.726 153.894 137.479 154.358 137.13C154.825 136.795 155.228 136.363 155.567 135.833C155.912 135.294 156.143 134.733 156.262 134.151C156.376 133.577 156.38 133.016 156.274 132.468C156.163 131.929 155.944 131.421 155.615 130.945C155.289 130.484 154.866 130.087 154.345 129.753C153.832 129.426 153.294 129.209 152.73 129.101C152.169 129.008 151.616 129.022 151.071 129.142C150.529 129.277 150.021 129.516 149.549 129.859C149.076 130.203 148.667 130.644 148.323 131.183C148.001 131.687 147.77 132.216 147.63 132.772C147.493 133.343 147.482 133.944 147.598 134.575L146.082 134.688C145.985 133.968 146.035 133.228 146.23 132.466C146.429 131.72 146.741 131.014 147.166 130.349ZM147.085 133.506L150.59 135.747L149.763 137.041L146.082 134.688L147.085 133.506Z" fill="#542FB4"/>
<path d="M142.525 136.527L147.087 147.945L145.989 149.087L134.388 144.995L135.552 143.783L146.119 147.658L145.676 148.12L141.384 137.715L142.525 136.527ZM143.048 140.024L143.671 141.223L139.303 145.768L138.059 145.216L143.048 140.024Z" fill="#542FB4"/>
<path d="M131.062 146.907C131.734 146.363 132.439 145.971 133.177 145.731C133.922 145.499 134.663 145.414 135.4 145.477C136.143 145.548 136.849 145.759 137.517 146.11C138.185 146.461 138.781 146.961 139.304 147.607C139.828 148.254 140.191 148.941 140.395 149.668C140.599 150.395 140.654 151.125 140.561 151.859C140.467 152.607 140.225 153.317 139.836 153.989C139.453 154.669 138.921 155.284 138.241 155.834C137.553 156.391 136.832 156.789 136.078 157.028C135.325 157.267 134.568 157.323 133.808 157.197L133.955 155.802C134.594 155.862 135.188 155.8 135.739 155.615C136.287 155.446 136.807 155.163 137.296 154.767C137.794 154.365 138.191 153.906 138.488 153.392C138.777 152.884 138.958 152.353 139.032 151.799C139.097 151.253 139.049 150.702 138.888 150.146C138.725 149.605 138.449 149.095 138.06 148.614C137.678 148.141 137.236 147.764 136.735 147.484C136.232 147.218 135.703 147.056 135.148 146.997C134.591 146.954 134.035 147.02 133.477 147.196C132.92 147.372 132.393 147.662 131.895 148.064C131.431 148.44 131.044 148.869 130.735 149.352C130.425 149.85 130.224 150.417 130.135 151.052L128.661 150.68C128.797 149.966 129.078 149.279 129.504 148.619C129.929 147.974 130.448 147.403 131.062 146.907ZM129.986 149.876L132.602 153.111L131.408 154.076L128.661 150.68L129.986 149.876Z" fill="#542FB4"/>
<path d="M129.733 155.594L124.848 158.646L124.127 157.493L129.012 154.441L129.733 155.594ZM126.974 151.45L121.438 154.909L120.701 153.729L127.594 149.422L133.528 158.921L126.825 163.109L126.087 161.928L131.434 158.588L126.974 151.45Z" fill="#542FB4"/>
<path d="M120.495 153.525L125.232 163.674L124.044 164.229L113.439 159.026L114.063 158.735L117.954 167.071L116.505 167.748L111.767 157.6L112.956 157.045L123.56 162.247L122.937 162.538L119.045 154.202L120.495 153.525Z" fill="#542FB4"/>
<path d="M107.112 158.558C107.924 158.296 108.718 158.186 109.494 158.228C110.262 158.283 110.979 158.472 111.643 158.796C112.301 159.134 112.878 159.586 113.375 160.155C113.872 160.723 114.248 161.403 114.503 162.195C114.758 162.987 114.85 163.759 114.778 164.511C114.706 165.262 114.495 165.963 114.144 166.614C113.797 167.275 113.325 167.847 112.73 168.33C112.128 168.827 111.421 169.206 110.609 169.467C109.786 169.732 108.984 169.833 108.202 169.772C107.413 169.723 106.687 169.503 106.023 169.112L106.704 167.833C107.247 168.129 107.805 168.297 108.379 168.336C108.955 168.386 109.532 168.318 110.111 168.131C110.71 167.938 111.236 167.657 111.688 167.287C112.131 166.921 112.481 166.494 112.739 166.008C112.997 165.521 113.15 164.99 113.2 164.414C113.243 163.851 113.17 163.275 112.98 162.686C112.79 162.097 112.512 161.581 112.146 161.139C111.772 160.71 111.339 160.374 110.846 160.129C110.352 159.884 109.819 159.742 109.246 159.703C108.663 159.667 108.072 159.745 107.473 159.938C106.894 160.124 106.383 160.401 105.941 160.767C105.502 161.144 105.15 161.616 104.884 162.183L103.585 161.543C103.896 160.837 104.356 160.23 104.965 159.72C105.564 159.213 106.28 158.826 107.112 158.558Z" fill="#542FB4"/>
<path d="M100.793 160.048L101.618 164.256L101.066 163.353L107.312 170.184L105.632 170.513L100.376 164.743L101.287 164.565L98.5818 171.894L97.0273 172.198L100.218 163.519L100.063 164.56L99.239 160.352L100.793 160.048Z" fill="#542FB4"/>
</svg>
