<svg width="32" height="32" viewBox="0 0 32 32" fill="none" xmlns="http://www.w3.org/2000/svg">
<path d="M12.0013 29.3307H20.0013C26.668 29.3307 29.3346 26.6641 29.3346 19.9974V11.9974C29.3346 5.33073 26.668 2.66406 20.0013 2.66406H12.0013C5.33464 2.66406 2.66797 5.33073 2.66797 11.9974V19.9974C2.66797 26.6641 5.33464 29.3307 12.0013 29.3307Z" stroke="#FBFBFB" stroke-width="1.5" stroke-linecap="round" stroke-linejoin="round"/>
<path d="M15.9987 20.6693C18.576 20.6693 20.6654 18.5799 20.6654 16.0026C20.6654 13.4253 18.576 11.3359 15.9987 11.3359C13.4214 11.3359 11.332 13.4253 11.332 16.0026C11.332 18.5799 13.4214 20.6693 15.9987 20.6693Z" stroke="#FBFBFB" stroke-width="1.5" stroke-linecap="round" stroke-linejoin="round"/>
<path d="M23.5161 9.33073H23.5315" stroke="#FBFBFB" stroke-width="1.5" stroke-linecap="round" stroke-linejoin="round"/>
</svg>
