<svg width="239" height="70" viewBox="0 0 239 70" fill="none" xmlns="http://www.w3.org/2000/svg">
<g clip-path="url(#clip0_2471_28031)">
<rect width="239" height="70" transform="matrix(-1 0 0 1 239 0)" fill="white"/>
<g clip-path="url(#clip1_2471_28031)">
<path d="M331 -167H-72V236H331V-167Z" fill="#22003C"/>
<path d="M175.884 57.2812H133.898V65.5246H175.884V57.2812Z" fill="#5744B0"/>
<path d="M135.177 16.6094V5.34497H140.504C141.748 5.34497 142.842 5.57562 143.786 6.03693C144.731 6.49823 145.465 7.14727 145.991 7.98406C146.527 8.82084 146.796 9.81855 146.796 10.9772C146.796 12.1251 146.527 13.1228 145.991 13.9703C145.465 14.8071 144.731 15.4561 143.786 15.9174C142.842 16.3787 141.748 16.6094 140.504 16.6094H135.177ZM138.363 14.0668H140.375C141.019 14.0668 141.576 13.9488 142.049 13.7128C142.531 13.4661 142.907 13.112 143.175 12.6507C143.443 12.1787 143.577 11.6209 143.577 10.9772C143.577 10.3228 143.443 9.76491 143.175 9.3036C142.907 8.8423 142.531 8.49364 142.049 8.25762C141.576 8.01088 141.019 7.88751 140.375 7.88751H138.363V14.0668ZM148.472 16.6094V5.34497H151.658V16.6094H148.472ZM159.557 16.8347C158.667 16.8347 157.841 16.6952 157.079 16.4163C156.317 16.1266 155.658 15.719 155.1 15.1933C154.553 14.6676 154.124 14.0507 153.812 13.3427C153.501 12.6239 153.346 11.8354 153.346 10.9772C153.346 10.1189 153.501 9.33579 153.812 8.62774C154.124 7.90896 154.558 7.28674 155.116 6.76107C155.674 6.23539 156.333 5.83309 157.095 5.55417C157.868 5.26451 158.71 5.11968 159.622 5.11968C160.684 5.11968 161.633 5.29669 162.47 5.65072C163.307 6.00474 163.999 6.51432 164.546 7.17946L162.518 9.01395C162.132 8.59556 161.714 8.28444 161.263 8.08061C160.823 7.86605 160.33 7.75877 159.783 7.75877C159.3 7.75877 158.86 7.83387 158.463 7.98406C158.066 8.13425 157.728 8.35418 157.449 8.64383C157.17 8.92276 156.95 9.26069 156.789 9.65763C156.639 10.0438 156.564 10.4837 156.564 10.9772C156.564 11.4492 156.639 11.8837 156.789 12.2806C156.95 12.6776 157.17 13.0209 157.449 13.3105C157.728 13.5894 158.061 13.8094 158.447 13.9703C158.844 14.1205 159.278 14.1956 159.75 14.1956C160.222 14.1956 160.684 14.1205 161.134 13.9703C161.585 13.8094 162.041 13.5412 162.502 13.1657L164.288 15.4025C163.645 15.8638 162.899 16.2178 162.052 16.4645C161.204 16.7113 160.373 16.8347 159.557 16.8347ZM161.472 14.9841V10.7358H164.288V15.4025L161.472 14.9841ZM166.308 16.6094V5.34497H169.495V16.6094H166.308ZM174.159 16.6094V7.87141H170.699V5.34497H180.789V7.87141H177.345V16.6094H174.159ZM180.059 16.6094L185.031 5.34497H188.169L193.157 16.6094H189.843L185.948 6.90589H187.203L183.309 16.6094H180.059ZM182.778 14.4209L183.599 12.0714H189.102L189.923 14.4209H182.778ZM194.061 16.6094V5.34497H197.247V14.0829H202.622V16.6094H194.061Z" fill="white"/>
<path d="M135.177 33.0156V21.7512H137.8L142.467 29.411H141.083L145.621 21.7512H148.244L148.276 33.0156H145.347L145.315 26.2087H145.814L142.419 31.9053H141.003L137.511 26.2087H138.122V33.0156H135.177ZM149.179 33.0156L154.151 21.7512H157.289L162.278 33.0156H158.963L155.069 23.3121H156.324L152.429 33.0156H149.179ZM151.898 30.8271L152.719 28.4777H158.223L159.043 30.8271H151.898ZM163.181 33.0156V21.7512H168.331C169.36 21.7512 170.245 21.9175 170.986 22.2501C171.737 22.5826 172.316 23.0654 172.724 23.6984C173.131 24.3206 173.335 25.0608 173.335 25.919C173.335 26.7666 173.131 27.5014 172.724 28.1237C172.316 28.7352 171.737 29.2072 170.986 29.5398C170.245 29.8616 169.36 30.0225 168.331 30.0225H164.951L166.367 28.6869V33.0156H163.181ZM170.149 33.0156L167.349 28.9122H170.744L173.56 33.0156H170.149ZM166.367 29.0248L164.951 27.5604H168.137C168.803 27.5604 169.296 27.4156 169.618 27.126C169.95 26.8363 170.117 26.434 170.117 25.919C170.117 25.3934 169.95 24.9857 169.618 24.6961C169.296 24.4064 168.803 24.2616 168.137 24.2616H164.951L166.367 22.7972V29.0248ZM177.941 30.5214L177.764 26.9489L182.608 21.7512H186.116L181.288 26.9811L179.518 28.8317L177.941 30.5214ZM175.093 33.0156V21.7512H178.247V33.0156H175.093ZM182.656 33.0156L178.987 28.365L181.063 26.1443L186.357 33.0156H182.656ZM190.122 26.1122H195.352V28.4938H190.122V26.1122ZM190.347 30.5535H196.237V33.0156H187.193V21.7512H196.028V24.2133H190.347V30.5535ZM200.403 33.0156V24.2777H196.943V21.7512H207.033V24.2777H203.589V33.0156H200.403ZM208.22 33.0156V21.7512H211.406V33.0156H208.22ZM213.673 33.0156V21.7512H216.296L222.507 29.2501H221.268V21.7512H224.39V33.0156H221.767L215.556 25.5167H216.795V33.0156H213.673ZM232.27 33.2409C231.379 33.2409 230.553 33.1014 229.792 32.8225C229.03 32.5329 228.37 32.1252 227.812 31.5995C227.265 31.0739 226.836 30.457 226.525 29.7489C226.214 29.0302 226.058 28.2417 226.058 27.3834C226.058 26.5252 226.214 25.742 226.525 25.034C226.836 24.3152 227.271 23.693 227.828 23.1673C228.386 22.6416 229.046 22.2393 229.808 21.9604C230.58 21.6708 231.422 21.5259 232.334 21.5259C233.396 21.5259 234.346 21.7029 235.183 22.057C236.019 22.411 236.711 22.9206 237.258 23.5857L235.231 25.4202C234.845 25.0018 234.426 24.6907 233.976 24.4869C233.536 24.2723 233.042 24.165 232.495 24.165C232.012 24.165 231.573 24.2401 231.176 24.3903C230.779 24.5405 230.441 24.7604 230.162 25.0501C229.883 25.329 229.663 25.6669 229.502 26.0639C229.352 26.4501 229.277 26.8899 229.277 27.3834C229.277 27.8555 229.352 28.2899 229.502 28.6869C229.663 29.0838 229.883 29.4271 230.162 29.7168C230.441 29.9957 230.773 30.2156 231.16 30.3765C231.556 30.5267 231.991 30.6018 232.463 30.6018C232.935 30.6018 233.396 30.5267 233.847 30.3765C234.297 30.2156 234.753 29.9474 235.215 29.5719L237.001 31.8087C236.357 32.27 235.612 32.6241 234.764 32.8708C233.917 33.1175 233.085 33.2409 232.27 33.2409ZM234.185 31.3903V27.142H237.001V31.8087L234.185 31.3903Z" fill="white"/>
<path d="M133.825 49.4297L138.798 38.1653H141.936L146.924 49.4297H143.609L139.715 39.7262H140.97L137.076 49.4297H133.825ZM136.545 47.2412L137.366 44.8917H142.869L143.69 47.2412H136.545ZM153.303 49.655C152.412 49.655 151.586 49.5155 150.825 49.2366C150.063 48.9469 149.403 48.5393 148.845 48.0136C148.298 47.4879 147.869 46.8711 147.558 46.163C147.247 45.4442 147.091 44.6557 147.091 43.7975C147.091 42.9392 147.247 42.1561 147.558 41.4481C147.869 40.7293 148.303 40.1071 148.861 39.5814C149.419 39.0557 150.079 38.6534 150.841 38.3745C151.613 38.0848 152.455 37.94 153.367 37.94C154.429 37.94 155.379 38.117 156.215 38.471C157.052 38.8251 157.744 39.3346 158.291 39.9998L156.264 41.8343C155.877 41.4159 155.459 41.1048 155.008 40.9009C154.569 40.6864 154.075 40.5791 153.528 40.5791C153.045 40.5791 152.605 40.6542 152.208 40.8044C151.812 40.9546 151.474 41.1745 151.195 41.4641C150.916 41.7431 150.696 42.081 150.535 42.4779C150.385 42.8641 150.31 43.304 150.31 43.7975C150.31 44.2695 150.385 44.704 150.535 45.1009C150.696 45.4979 150.916 45.8412 151.195 46.1308C151.474 46.4098 151.806 46.6297 152.192 46.7906C152.589 46.9408 153.024 47.0159 153.496 47.0159C153.968 47.0159 154.429 46.9408 154.88 46.7906C155.33 46.6297 155.786 46.3615 156.248 45.986L158.034 48.2228C157.39 48.6841 156.645 49.0381 155.797 49.2849C154.949 49.5316 154.118 49.655 153.303 49.655ZM155.218 47.8044V43.5561H158.034V48.2228L155.218 47.8044ZM162.983 42.5262H168.212V44.9078H162.983V42.5262ZM163.208 46.9676H169.098V49.4297H160.054V38.1653H168.888V40.6274H163.208V46.9676ZM170.866 49.4297V38.1653H173.489L179.7 45.6642H178.461V38.1653H181.583V49.4297H178.96L172.748 41.9308H173.987V49.4297H170.866ZM189.447 49.655C188.556 49.655 187.73 49.5155 186.968 49.2366C186.217 48.9469 185.563 48.5393 185.005 48.0136C184.458 47.4879 184.029 46.8711 183.718 46.163C183.407 45.4442 183.251 44.6557 183.251 43.7975C183.251 42.9392 183.407 42.1561 183.718 41.4481C184.029 40.7293 184.458 40.1071 185.005 39.5814C185.563 39.0557 186.217 38.6534 186.968 38.3745C187.73 38.0848 188.556 37.94 189.447 37.94C190.487 37.94 191.415 38.1224 192.23 38.4871C193.056 38.8519 193.743 39.3775 194.29 40.0641L192.263 41.8986C191.898 41.4695 191.496 41.1423 191.056 40.917C190.627 40.6917 190.144 40.5791 189.607 40.5791C189.146 40.5791 188.722 40.6542 188.336 40.8044C187.95 40.9546 187.617 41.1745 187.338 41.4641C187.07 41.7431 186.856 42.081 186.695 42.4779C186.545 42.8749 186.469 43.3147 186.469 43.7975C186.469 44.2802 186.545 44.7201 186.695 45.117C186.856 45.514 187.07 45.8573 187.338 46.1469C187.617 46.4258 187.95 46.6404 188.336 46.7906C188.722 46.9408 189.146 47.0159 189.607 47.0159C190.144 47.0159 190.627 46.9032 191.056 46.678C191.496 46.4527 191.898 46.1255 192.263 45.6963L194.29 47.5308C193.743 48.2067 193.056 48.7324 192.23 49.1078C191.415 49.4726 190.487 49.655 189.447 49.655ZM198.512 49.4297V44.6665L199.252 46.5814L194.215 38.1653H197.579L201.215 44.2642H199.268L202.921 38.1653H206.011L200.99 46.5814L201.698 44.6665V49.4297H198.512Z" fill="white"/>
<path d="M137.844 63.0312V59.9129H138.116L140.267 62.6214H140.125V59.9129H140.45V63.0312H140.178L138.031 60.3227H138.173V63.0312H137.844ZM141.468 63.0312V59.9129H141.797V63.0312H141.468ZM144.18 63.058C143.942 63.058 143.722 63.0194 143.52 62.9422C143.321 62.862 143.147 62.7506 142.999 62.608C142.853 62.4655 142.739 62.2977 142.656 62.1047C142.576 61.9116 142.536 61.7008 142.536 61.4721C142.536 61.2434 142.576 61.0325 142.656 60.8395C142.739 60.6465 142.855 60.4787 143.003 60.3361C143.152 60.1936 143.326 60.0837 143.525 60.0065C143.727 59.9263 143.946 59.8862 144.184 59.8862C144.422 59.8862 144.638 59.9233 144.834 59.9975C145.033 60.0718 145.203 60.1846 145.342 60.3361L145.137 60.5455C145.007 60.4148 144.863 60.3213 144.705 60.2648C144.548 60.2084 144.378 60.1802 144.197 60.1802C144.004 60.1802 143.826 60.2129 143.663 60.2782C143.502 60.3406 143.361 60.4311 143.24 60.5499C143.121 60.6658 143.027 60.8024 142.959 60.9598C142.894 61.1142 142.861 61.285 142.861 61.4721C142.861 61.6562 142.894 61.827 142.959 61.9844C143.027 62.1418 143.121 62.2799 143.24 62.3987C143.361 62.5145 143.502 62.6051 143.663 62.6704C143.826 62.7328 144.003 62.764 144.193 62.764C144.371 62.764 144.539 62.7372 144.696 62.6838C144.857 62.6303 145.004 62.5397 145.137 62.412L145.324 62.6615C145.176 62.7922 145.002 62.8917 144.803 62.96C144.604 63.0253 144.396 63.058 144.18 63.058ZM145.008 62.6214V61.4721H145.324V62.6615L145.008 62.6214ZM146.551 61.3073H148.2V61.5879H146.551V61.3073ZM146.587 62.7461H148.463V63.0312H146.257V59.9129H148.396V60.198H146.587V62.7461ZM149.237 63.0312V59.9129H150.405C150.669 59.9129 150.896 59.956 151.086 60.0421C151.276 60.1253 151.422 60.247 151.523 60.4074C151.627 60.5648 151.679 60.7563 151.679 60.9821C151.679 61.2018 151.627 61.3919 151.523 61.5523C151.422 61.7097 151.276 61.8314 151.086 61.9176C150.896 62.0007 150.669 62.0423 150.405 62.0423H149.42L149.567 61.8908V63.0312H149.237ZM151.367 63.0312L150.565 61.8997H150.921L151.728 63.0312H151.367ZM149.567 61.9176L149.42 61.7616H150.396C150.707 61.7616 150.944 61.6933 151.104 61.5567C151.267 61.4201 151.349 61.2286 151.349 60.9821C151.349 60.7326 151.267 60.5395 151.104 60.4029C150.944 60.2663 150.707 60.198 150.396 60.198H149.42L149.567 60.0421V61.9176ZM152.457 63.0312V59.9129H152.786V63.0312H152.457ZM153.302 63.0312L154.728 59.9129H155.053L156.478 63.0312H156.131L154.821 60.1045H154.955L153.645 63.0312H153.302ZM153.863 62.1982L153.961 61.9309H155.774L155.872 62.1982H153.863Z" fill="white"/>
<path d="M124.223 3.46875H1.98828V64.9169H124.223V3.46875Z" fill="#7642FE"/>
<path d="M85.1381 17.3356L68.9898 36.0138L68.8283 17.3356H58.0628L51.0883 33.6992C51.0961 33.8452 51.0961 33.9915 51.0883 34.1375C51.0883 40.4276 48.6814 45.6028 44.4982 49.0785L43.6523 51.0701H52.4724L61.0156 31.077L60.685 47.7405H67.2519L81.1625 31.077L72.7039 51.0701H84.869L95.9036 17.3125L85.1381 17.3356Z" fill="white"/>
<path d="M89.6289 17.2969H97.9414L114.582 51.1314H103.17L89.6289 17.2969Z" fill="white"/>
<path d="M30.5268 17.2969H23.1986L11.6641 51.1314H30.1961C41.3308 51.1314 48.7052 44.3799 48.7052 34.2142C48.7052 24.0484 41.4692 17.2969 30.5268 17.2969ZM30.8113 43.2341H25.7515L30.5037 25.2403H30.3346C35.1483 25.2403 38.4779 28.8621 38.4779 34.3064C38.4779 39.7507 35.3944 43.2341 30.8113 43.2341Z" fill="white"/>
</g>
</g>
<defs>
<clipPath id="clip0_2471_28031">
<rect width="239" height="70" fill="white" transform="matrix(-1 0 0 1 239 0)"/>
</clipPath>
<clipPath id="clip1_2471_28031">
<rect width="403" height="403" fill="white" transform="translate(-72 -167)"/>
</clipPath>
</defs>
</svg>
