<svg width="89" height="88" viewBox="0 0 89 88" fill="none" xmlns="http://www.w3.org/2000/svg">
<rect x="0.5" width="88" height="88" rx="40" fill="#F1ECFF"/>
<path d="M44.7682 42.1193C44.6016 42.1026 44.4016 42.1026 44.2182 42.1193C40.2516 41.9859 37.1016 38.7359 37.1016 34.7359C37.1016 30.6526 40.4016 27.3359 44.5016 27.3359C48.5849 27.3359 51.9016 30.6526 51.9016 34.7359C51.8849 38.7359 48.7349 41.9859 44.7682 42.1193Z" stroke="#542FB4" stroke-width="1.5" stroke-linecap="round" stroke-linejoin="round"/>
<path d="M36.4352 48.2641C32.4018 50.9641 32.4018 55.3641 36.4352 58.0474C41.0185 61.1141 48.5352 61.1141 53.1185 58.0474C57.1518 55.3474 57.1518 50.9474 53.1185 48.2641C48.5518 45.2141 41.0352 45.2141 36.4352 48.2641Z" stroke="#542FB4" stroke-width="1.5" stroke-linecap="round" stroke-linejoin="round"/>
</svg>
