<svg width="89" height="88" viewBox="0 0 89 88" fill="none" xmlns="http://www.w3.org/2000/svg">
<rect x="0.5" width="88" height="88" rx="40" fill="#F1ECFF"/>
<path d="M29.7852 36.4062L44.5018 44.9229L59.1185 36.4562" stroke="#542FB4" stroke-width="1.5" stroke-linecap="round" stroke-linejoin="round"/>
<path d="M44.5 60.0229V44.9062" stroke="#542FB4" stroke-width="1.5" stroke-linecap="round" stroke-linejoin="round"/>
<path d="M41.051 28.1359L32.151 33.086C30.1343 34.2027 28.4844 37.0026 28.4844 39.3026V48.7193C28.4844 51.0193 30.1343 53.8193 32.151 54.936L41.051 59.886C42.951 60.936 46.0677 60.936 47.9677 59.886L56.8677 54.936C58.8844 53.8193 60.5343 51.0193 60.5343 48.7193V39.3026C60.5343 37.0026 58.8844 34.2027 56.8677 33.086L47.9677 28.1359C46.051 27.0693 42.951 27.0693 41.051 28.1359Z" stroke="#542FB4" stroke-width="1.5" stroke-linecap="round" stroke-linejoin="round"/>
<path d="M52.8323 46.0693V39.9693L37.0156 30.8359" stroke="#542FB4" stroke-width="1.5" stroke-linecap="round" stroke-linejoin="round"/>
</svg>
