<svg width="88" height="88" viewBox="0 0 88 88" fill="none" xmlns="http://www.w3.org/2000/svg">
<rect width="88" height="88" rx="40" fill="#F1ECFF"/>
<path d="M29 60.6641H59" stroke="#542FB4" stroke-width="1.5" stroke-linecap="round" stroke-linejoin="round"/>
<path d="M33.3333 37.9688H30.6667C29.75 37.9688 29 38.7187 29 39.6354V54.0021C29 54.9187 29.75 55.6687 30.6667 55.6687H33.3333C34.25 55.6687 35 54.9187 35 54.0021V39.6354C35 38.7187 34.25 37.9688 33.3333 37.9688Z" stroke="#542FB4" stroke-width="1.5" stroke-linecap="round" stroke-linejoin="round"/>
<path d="M45.3333 32.6562H42.6667C41.75 32.6562 41 33.4062 41 34.3229V54.0062C41 54.9229 41.75 55.6729 42.6667 55.6729H45.3333C46.25 55.6729 47 54.9229 47 54.0062V34.3229C47 33.4062 46.25 32.6562 45.3333 32.6562Z" stroke="#542FB4" stroke-width="1.5" stroke-linecap="round" stroke-linejoin="round"/>
<path d="M57.3333 27.3359H54.6667C53.75 27.3359 53 28.0859 53 29.0026V54.0026C53 54.9193 53.75 55.6693 54.6667 55.6693H57.3333C58.25 55.6693 59 54.9193 59 54.0026V29.0026C59 28.0859 58.25 27.3359 57.3333 27.3359Z" stroke="#542FB4" stroke-width="1.5" stroke-linecap="round" stroke-linejoin="round"/>
</svg>
