<svg width="88" height="88" viewBox="0 0 88 88" fill="none" xmlns="http://www.w3.org/2000/svg">
<rect width="88" height="88" rx="40" fill="#F1ECFF"/>
<path d="M46.8842 29.8484L49.8175 35.7151C50.2175 36.5318 51.2842 37.3151 52.1842 37.4651L57.5008 38.3484C60.9008 38.9151 61.7008 41.3818 59.2508 43.8151L55.1175 47.9484C54.4175 48.6484 54.0342 49.9984 54.2508 50.9651L55.4342 56.0818C56.3675 60.1318 54.2175 61.6984 50.6342 59.5818L45.6508 56.6318C44.7508 56.0984 43.2675 56.0984 42.3508 56.6318L37.3675 59.5818C33.8008 61.6984 31.6342 60.1151 32.5675 56.0818L33.7508 50.9651C33.9675 49.9984 33.5842 48.6484 32.8842 47.9484L28.7508 43.8151C26.3175 41.3818 27.1008 38.9151 30.5008 38.3484L35.8175 37.4651C36.7008 37.3151 37.7675 36.5318 38.1675 35.7151L41.1008 29.8484C42.7008 26.6651 45.3008 26.6651 46.8842 29.8484Z" stroke="#542FB4" stroke-width="1.5" stroke-linecap="round" stroke-linejoin="round"/>
</svg>
