<svg width="41" height="40" viewBox="0 0 41 40" fill="none" xmlns="http://www.w3.org/2000/svg">
<rect x="1" y="0.5" width="39" height="39" rx="19.5" fill="#FBFBFB"/>
<rect x="1" y="0.5" width="39" height="39" rx="19.5" stroke="#DBDBDB"/>
<path d="M12.168 11.6641H13.618C14.518 11.6641 15.2263 12.4391 15.1513 13.3307L14.4596 21.6307C14.343 22.9891 15.418 24.1557 16.7846 24.1557H25.6596C26.8596 24.1557 27.9096 23.1724 28.0013 21.9807L28.4513 15.7307C28.5513 14.3474 27.5013 13.2224 26.1096 13.2224H15.3513" stroke="#7642FE" stroke-width="1.5" stroke-miterlimit="10" stroke-linecap="round" stroke-linejoin="round"/>
<path d="M24.0417 28.3333C24.617 28.3333 25.0833 27.867 25.0833 27.2917C25.0833 26.7164 24.617 26.25 24.0417 26.25C23.4664 26.25 23 26.7164 23 27.2917C23 27.867 23.4664 28.3333 24.0417 28.3333Z" stroke="#7642FE" stroke-width="1.5" stroke-miterlimit="10" stroke-linecap="round" stroke-linejoin="round"/>
<path d="M17.3737 28.3333C17.949 28.3333 18.4154 27.867 18.4154 27.2917C18.4154 26.7164 17.949 26.25 17.3737 26.25C16.7984 26.25 16.332 26.7164 16.332 27.2917C16.332 27.867 16.7984 28.3333 17.3737 28.3333Z" stroke="#7642FE" stroke-width="1.5" stroke-miterlimit="10" stroke-linecap="round" stroke-linejoin="round"/>
<path d="M18 16.6641H28" stroke="#7642FE" stroke-width="1.5" stroke-miterlimit="10" stroke-linecap="round" stroke-linejoin="round"/>
</svg>
