<svg width="41" height="40" viewBox="0 0 41 40" fill="none" xmlns="http://www.w3.org/2000/svg">
<rect x="1" y="0.5" width="39" height="39" rx="19.5" fill="#FBFBFB"/>
<rect x="1" y="0.5" width="39" height="39" rx="19.5" stroke="#DBDBDB"/>
<path d="M18.1341 19.0557C18.0508 19.0474 17.9508 19.0474 17.8591 19.0557C15.8758 18.9891 14.3008 17.3641 14.3008 15.3641C14.3008 13.3224 15.9508 11.6641 18.0008 11.6641C20.0424 11.6641 21.7008 13.3224 21.7008 15.3641C21.6924 17.3641 20.1174 18.9891 18.1341 19.0557Z" stroke="#7642FE" stroke-width="1.5" stroke-linecap="round" stroke-linejoin="round"/>
<path d="M24.1747 13.3359C25.7914 13.3359 27.0914 14.6443 27.0914 16.2526C27.0914 17.8276 25.8414 19.1109 24.2831 19.1693C24.2164 19.1609 24.1414 19.1609 24.0664 19.1693" stroke="#7642FE" stroke-width="1.5" stroke-linecap="round" stroke-linejoin="round"/>
<path d="M13.9656 22.1359C11.949 23.4859 11.949 25.6859 13.9656 27.0276C16.2573 28.5609 20.0156 28.5609 22.3073 27.0276C24.324 25.6776 24.324 23.4776 22.3073 22.1359C20.024 20.6109 16.2656 20.6109 13.9656 22.1359Z" stroke="#7642FE" stroke-width="1.5" stroke-linecap="round" stroke-linejoin="round"/>
<path d="M25.7852 26.6641C26.3852 26.5391 26.9518 26.2974 27.4185 25.9391C28.7185 24.9641 28.7185 23.3557 27.4185 22.3807C26.9602 22.0307 26.4018 21.7974 25.8102 21.6641" stroke="#7642FE" stroke-width="1.5" stroke-linecap="round" stroke-linejoin="round"/>
</svg>
