<svg width="41" height="40" viewBox="0 0 41 40" fill="none" xmlns="http://www.w3.org/2000/svg">
<rect x="1" y="0.5" width="39" height="39" rx="19.5" fill="#FBFBFB"/>
<rect x="1" y="0.5" width="39" height="39" rx="19.5" stroke="#DBDBDB"/>
<path d="M24.668 17.4974C24.668 20.7224 21.868 23.3307 18.418 23.3307L17.643 24.2641L17.1846 24.8141C16.793 25.2808 16.043 25.1807 15.7846 24.6224L14.668 22.164C13.1513 21.0974 12.168 19.4057 12.168 17.4974C12.168 14.2724 14.968 11.6641 18.418 11.6641C20.9346 11.6641 23.1096 13.0557 24.0846 15.0557C24.4596 15.7974 24.668 16.6224 24.668 17.4974Z" stroke="#7642FE" stroke-width="1.5" stroke-linecap="round" stroke-linejoin="round"/>
<path d="M28.8323 20.713C28.8323 22.6213 27.849 24.313 26.3323 25.3797L25.2156 27.838C24.9573 28.3963 24.2073 28.5047 23.8156 28.0297L22.5823 26.5463C20.5656 26.5463 18.7656 25.6547 17.6406 24.263L18.4156 23.3297C21.8656 23.3297 24.6656 20.7213 24.6656 17.4963C24.6656 16.6213 24.4573 15.7964 24.0823 15.0547C26.8073 15.6797 28.8323 17.9797 28.8323 20.713Z" stroke="#7642FE" stroke-width="1.5" stroke-linecap="round" stroke-linejoin="round"/>
<path d="M16.332 17.5H20.4987" stroke="#7642FE" stroke-width="1.5" stroke-linecap="round" stroke-linejoin="round"/>
</svg>
