<svg width="41" height="40" viewBox="0 0 41 40" fill="none" xmlns="http://www.w3.org/2000/svg">
<rect x="1" y="0.5" width="39" height="39" rx="19.5" fill="#FBFBFB"/>
<rect x="1" y="0.5" width="39" height="39" rx="19.5" stroke="#DBDBDB"/>
<g clip-path="url(#clip0_2101_40206)">
<path d="M32.3095 13.9379C30.7695 17.7779 26.9095 22.9979 23.6795 25.5879L21.7095 27.1679C21.4595 27.3479 21.2095 27.5079 20.9295 27.6179C20.9295 27.4379 20.9195 27.2379 20.8895 27.0479C20.7795 26.2079 20.3995 25.4279 19.7295 24.7579C19.0495 24.0779 18.2195 23.6779 17.3695 23.5679C17.1695 23.5579 16.9695 23.5379 16.7695 23.5579C16.8795 23.2479 17.0495 22.9579 17.2595 22.7179L18.8195 20.7479C21.3995 17.5179 26.6395 13.6379 30.4695 12.1079C31.0595 11.8879 31.6295 12.0479 31.9895 12.4179C32.3695 12.7879 32.5495 13.3579 32.3095 13.9379Z" stroke="#7642FE" stroke-width="1.5" stroke-linecap="round" stroke-linejoin="round"/>
<path d="M20.9293 27.6188C20.9293 28.7188 20.5093 29.7688 19.7193 30.5688C19.1093 31.1788 18.2793 31.5988 17.2893 31.7288L14.8293 31.9988C13.4893 32.1488 12.3393 31.0088 12.4993 29.6488L12.7693 27.1888C13.0093 24.9988 14.8393 23.5988 16.7793 23.5588C16.9793 23.5488 17.1893 23.5588 17.3793 23.5688C18.2293 23.6788 19.0593 24.0688 19.7393 24.7588C20.4093 25.4288 20.7893 26.2088 20.8993 27.0488C20.9093 27.2388 20.9293 27.4288 20.9293 27.6188Z" stroke="#7642FE" stroke-width="1.5" stroke-linecap="round" stroke-linejoin="round"/>
<path d="M24.7417 24.4722C24.7417 21.8622 22.6217 19.7422 20.0117 19.7422" stroke="#7642FE" stroke-width="1.5" stroke-linecap="round" stroke-linejoin="round"/>
<path d="M30.6188 22.7266L31.3588 23.4566C32.8488 24.9466 32.8488 26.4166 31.3588 27.9066L28.3987 30.8666C26.9287 32.3366 25.4388 32.3366 23.9688 30.8666" stroke="#7642FE" stroke-width="1.5" stroke-linecap="round"/>
<path d="M13.6103 20.5125C12.1403 19.0225 12.1403 17.5525 13.6103 16.0625L16.5703 13.1025C18.0403 11.6325 19.5303 11.6325 21.0003 13.1025L21.7403 13.8425" stroke="#7642FE" stroke-width="1.5" stroke-linecap="round"/>
<path d="M21.7508 13.8516L18.0508 17.5516" stroke="#7642FE" stroke-width="1.5" stroke-linecap="round"/>
<path d="M30.6202 22.7266L27.6602 25.6766" stroke="#7642FE" stroke-width="1.5" stroke-linecap="round"/>
</g>
<defs>
<clipPath id="clip0_2101_40206">
<rect width="24" height="24" fill="white" transform="translate(10.5 10)"/>
</clipPath>
</defs>
</svg>
