<svg width="41" height="40" viewBox="0 0 41 40" fill="none" xmlns="http://www.w3.org/2000/svg">
<rect x="1" y="0.5" width="39" height="39" rx="19.5" fill="#FBFBFB"/>
<rect x="1" y="0.5" width="39" height="39" rx="19.5" stroke="#DBDBDB"/>
<path d="M20.599 20.6536C20.5406 20.6453 20.4656 20.6453 20.399 20.6536C18.9323 20.6036 17.7656 19.4036 17.7656 17.9286C17.7656 16.4203 18.9823 15.1953 20.499 15.1953C22.0073 15.1953 23.2323 16.4203 23.2323 17.9286C23.224 19.4036 22.0656 20.6036 20.599 20.6536Z" stroke="#7642FE" stroke-width="1.5" stroke-linecap="round" stroke-linejoin="round"/>
<path d="M26.1161 26.1469C24.6328 27.5052 22.6661 28.3302 20.4995 28.3302C18.3328 28.3302 16.3661 27.5052 14.8828 26.1469C14.9661 25.3635 15.4661 24.5969 16.3578 23.9969C18.6411 22.4802 22.3745 22.4802 24.6411 23.9969C25.5328 24.5969 26.0328 25.3635 26.1161 26.1469Z" stroke="#7642FE" stroke-width="1.5" stroke-linecap="round" stroke-linejoin="round"/>
<path d="M20.5013 28.3307C25.1037 28.3307 28.8346 24.5998 28.8346 19.9974C28.8346 15.395 25.1037 11.6641 20.5013 11.6641C15.8989 11.6641 12.168 15.395 12.168 19.9974C12.168 24.5998 15.8989 28.3307 20.5013 28.3307Z" stroke="#7642FE" stroke-width="1.5" stroke-linecap="round" stroke-linejoin="round"/>
</svg>
